<?xml version="1.0" encoding="UTF-8" standalone="no"?>
<!-- Created with Inkscape (http://www.inkscape.org/) -->

<svg
   xmlns:dc="http://purl.org/dc/elements/1.1/"
   xmlns:cc="http://creativecommons.org/ns#"
   xmlns:rdf="http://www.w3.org/1999/02/22-rdf-syntax-ns#"
   xmlns:svg="http://www.w3.org/2000/svg"
   xmlns="http://www.w3.org/2000/svg"
   xmlns:sodipodi="http://sodipodi.sourceforge.net/DTD/sodipodi-0.dtd"
   xmlns:inkscape="http://www.inkscape.org/namespaces/inkscape"
   version="1.1"
   id="svg4485"
   width="4210"
   height="1200"
   viewBox="0 0 4210.0001 1200"
   sodipodi:docname="TextLogo.svg"
   inkscape:export-filename="C:\Users\ryan\storage\Documents\KiCad Projects\SpectreKey Development Board\logo\LogoText_Render2.png"
   inkscape:export-xdpi="299.99429"
   inkscape:export-ydpi="299.99429"
   inkscape:version="0.92.1 r15371">
  <metadata
     id="metadata4491">
    <rdf:RDF>
      <cc:Work
         rdf:about="">
        <dc:format>image/svg+xml</dc:format>
        <dc:type
           rdf:resource="http://purl.org/dc/dcmitype/StillImage" />
      </cc:Work>
    </rdf:RDF>
  </metadata>
  <defs
     id="defs4489" />
  <sodipodi:namedview
     pagecolor="#ffffff"
     bordercolor="#666666"
     borderopacity="1"
     objecttolerance="10"
     gridtolerance="10"
     guidetolerance="10"
     inkscape:pageopacity="0"
     inkscape:pageshadow="2"
     inkscape:window-width="1920"
     inkscape:window-height="1017"
     id="namedview4487"
     showgrid="false"
     inkscape:zoom="0.32"
     inkscape:cx="1526.0678"
     inkscape:cy="1203.9097"
     inkscape:window-x="-8"
     inkscape:window-y="-8"
     inkscape:window-maximized="1"
     inkscape:current-layer="svg4485" />
  <rect
     style="opacity:0.98999999;fill:#000000;fill-opacity:1;stroke:none;stroke-width:3.41902709;stroke-linecap:butt;stroke-linejoin:bevel;stroke-miterlimit:4;stroke-dasharray:none;stroke-opacity:1;paint-order:stroke fill markers"
     id="rect4522"
     width="4206.5811"
     height="1196.5811"
     x="1.7094812"
     y="1.7094847" />
  <g
     id="g4536"
     style="fill:#ffffff;fill-opacity:1">
    <path
       inkscape:connector-curvature="0"
       id="path4495"
       d="m 341.05902,1194.9769 c -7.02206,-3.1874 -25.33216,-19.0591 -48.39383,-41.9491 -43.29581,-42.9736 -51.11697,-55.4981 -52.97409,-84.8306 -0.65015,-10.2686 -3.43075,-24.9026 -6.17911,-32.5199 -4.30283,-11.9257 -4.95056,-21.189 -4.6625,-66.67898 0.31096,-49.10725 -0.15622,-54.66773 -6.6321,-78.92422 -4.24205,-15.88938 -15.25814,-43.53171 -28.16751,-70.67971 -11.66048,-24.52162 -22.57967,-49.38565 -24.26488,-55.25341 -1.6852,-5.86774 -4.12672,-25.68354 -5.4256,-44.03506 -1.29887,-18.35154 -3.50067,-36.3623 -4.8929,-40.02394 -1.39223,-3.66164 -10.53536,-14.74033 -20.31809,-24.61927 -23.83981,-24.07434 -31.79572,-41.28614 -30.411,-65.79107 0.73302,-12.97197 3.05915,-21.96277 8.29131,-32.04701 15.69807,-30.25583 3.20741,-66.72506 -20.727132,-60.51736 -24.504999,6.35568 -37.908983,10.67253 -41.026103,13.21278 -5.242547,4.27237 -34.708953,2.24726 -43.584524,-2.99543 -8.4044232,-4.96436 -8.7274215,-7.09343 -7.571304,-49.90694 0.3961275,-14.66938 -0.6916194,-31.91256 -2.4172071,-38.31822 -2.55901288,-9.49936 -2.31862897,-16.1378 1.303779,-36.00665 5.4871215,-30.09649 7.4431011,-35.37834 20.6922261,-55.87622 5.816556,-8.99889 12.125866,-20.75545 14.020714,-26.12577 5.950227,-16.86383 10.860503,-24.33921 32.870479,-50.04182 11.775456,-13.75104 23.28645,-28.95616 25.579989,-33.7892 2.293549,-4.83303 8.346433,-16.17569 13.450873,-25.2059 l 9.28084,-16.41859 -6.17594,-11.13688 c -5.348,-9.64391 -7.53488,-11.25058 -16.313047,-11.98506 -6.060179,-0.50705 -15.293957,1.37013 -22.959368,4.66752 -15.634471,6.72543 -33.228433,7.35586 -35.562266,1.27428 -1.933338,-5.03794 0.113823,-9.09436 4.589725,-9.09436 1.769871,0 8.600665,-3.0084 15.179541,-6.68532 6.578846,-3.67693 18.863188,-10.29544 27.298518,-14.70777 8.43533,-4.41235 15.336967,-9.41113 15.336967,-11.10841 0,-1.69728 -5.701354,-8.53896 -12.66968,-15.20372 C 67.882646,82.772446 57.61872,69.407744 57.61872,62.583186 c 0,-10.061178 4.407361,-10.06389 15.536894,-0.0095 5.73009,5.176531 14.480748,11.13505 19.445921,13.241168 4.965173,2.106118 13.161695,6.913233 18.214505,10.682475 11.90664,8.882026 24.16824,9.315176 24.12024,0.852067 C 134.89068,79.325045 123.73339,45.016577 115.01985,26.1072 109.40987,13.932855 108.58443,9.781569 110.90984,5.436714 112.51023,2.446518 114.71062,0 115.79959,0 c 10.06058,0 27.54209,29.389145 37.61555,63.237653 9.9521,33.440724 16.64624,28.839977 14.59654,-10.031879 -1.14849,-21.780924 -0.68205,-26.172949 3.11435,-29.323501 3.90303,-3.239071 5.11929,-2.897805 9.66108,2.710776 2.85776,3.528996 5.87593,9.816216 6.70705,13.971585 0.83111,4.155379 2.55636,8.201203 3.83389,8.990716 1.27754,0.789524 2.34048,7.665819 2.36211,15.280671 0.0216,7.614839 1.53044,16.791614 3.35295,20.392829 4.53361,8.958348 30.2335,23.70674 44.41508,25.48848 6.40197,0.80433 12.49562,1.99123 13.54148,2.63755 1.04582,0.64634 10.17547,-1.19679 20.28814,-4.09583 21.9083,-6.28053 26.33254,-5.39092 23.80642,4.78686 -3.61868,14.5798 -24.75098,29.57979 -36.44434,25.86866 -11.03572,-3.50243 -52.1096,11.35355 -58.88572,21.29834 -2.66216,3.90708 0.56603,15.05358 6.071,20.96215 2.55582,2.7432 5.46108,9.38463 6.45616,14.75872 3.03944,16.41499 11.9563,40.55381 18.00012,48.72812 3.15039,4.26088 11.53792,12.64585 18.63897,18.63324 l 12.911,10.88616 10.29227,-8.90022 c 5.66075,-4.89512 13.42355,-11.5099 17.25063,-14.69951 7.88995,-6.57568 9.12576,-17.78261 2.8726,-26.04961 -5.39361,-7.13062 -4.90413,-14.15336 1.11973,-16.06514 5.93554,-1.88378 41.84288,5.13876 57.42473,11.23077 17.67946,6.91209 30.62941,17.09789 59.44328,46.75509 28.01882,28.83886 32.86251,37.18678 27.44736,47.30453 -8.75036,16.3494 5.65498,33.85103 42.63078,51.79379 10.96773,5.32217 23.03625,12.64163 26.8189,16.26548 3.78265,3.62379 9.24544,6.58874 12.13951,6.58874 7.32527,0 16.40917,6.89546 21.14308,16.0494 2.19698,4.24824 9.59921,12.00337 16.4494,17.2336 16.50927,12.60516 23.74997,23.82736 33.30127,51.61297 6.42271,18.68437 8.11548,28.51652 8.81682,51.21121 0.67094,21.71033 2.4476,32.66355 7.82543,48.2437 5.8842,17.04728 6.49937,21.47034 3.98792,28.67427 -1.6332,4.68482 -2.38393,12.38058 -1.66823,17.10173 0.71566,4.72114 -0.88552,17.20929 -3.55819,27.75147 -2.67264,10.54216 -5.48221,24.34471 -6.24343,30.67232 -2.13561,17.75165 -26.66653,86.26169 -36.42025,101.7145 -19.24684,30.49277 -20.90524,34.84905 -26.46927,69.53046 -3.24119,20.20285 -10.27099,48.58897 -17.15447,69.26935 -6.41456,19.27156 -12.957,39.84009 -14.53877,45.70784 -1.58178,5.86774 -8.82916,18.92276 -16.10534,29.01113 -7.27618,10.08833 -14.63323,22.09053 -16.349,26.67163 -6.42324,17.1495 -9.71393,21.5222 -29.94161,39.7858 -24.23568,21.8824 -31.1013,31.9345 -33.56246,49.1393 -1.50881,10.5475 -3.29598,13.5181 -11.11382,18.4734 -25.25476,16.0076 -34.6552,28.7418 -34.6552,46.9451 0,4.855 1.82841,11.4376 4.06316,14.628 3.72528,5.3183 3.62895,6.033 -1.15832,8.595 -7.60733,4.0711 -16.08997,3.3511 -28.87091,-2.4504 z M 396.1924,977.60315 c 11.95975,-6.1843 28.93564,-27.38963 39.13925,-48.89057 5.15899,-10.87102 9.9079,-19.23767 10.55307,-18.59251 0.64519,0.64516 -1.16595,7.97116 -4.02477,16.28001 -4.96241,14.42284 -4.97975,15.10698 -0.38244,15.10698 8.40016,0 28.81414,-20.65364 37.4046,-37.84374 4.49424,-8.9933 8.26923,-14.65947 8.38891,-12.59149 0.11982,2.06797 2.0685,-0.44082 4.33078,-5.5751 2.26223,-5.13428 4.73326,-19.87024 5.49117,-32.74653 1.62509,-27.60966 5.96425,-33.97684 5.96425,-8.75186 0,10.28478 1.13822,17.49395 2.76209,17.49395 4.70146,0 12.30414,-21.56102 17.41862,-49.39882 2.6894,-14.63836 5.35117,-24.44842 5.91504,-21.80008 1.79493,8.43023 6.98018,3.51588 16.58098,-15.71466 15.52228,-31.09136 21.33838,-45.51217 21.33838,-52.90779 0,-8.04613 -9.75205,-38.51278 -13.95918,-43.6103 -4.27813,-5.18355 -1.08882,-6.30402 5.26892,-1.85112 3.1954,2.23803 7.5113,10.3375 9.91594,18.60878 4.62492,15.90824 9.471,18.5601 14.34993,7.85253 5.55619,-12.19388 3.70984,-26.49773 -5.38333,-41.70502 -4.66334,-7.79892 -10.19601,-17.03863 -12.29482,-20.53272 -2.54629,-4.23896 -4.45322,-5.32195 -5.73091,-3.25469 -1.35214,2.1877 -4.05502,1.41479 -9.19766,-2.63019 -18.61849,-14.64454 -55.36092,-21.56996 -77.65793,-14.6374 -7.33505,2.28064 -16.63726,4.15957 -20.67154,4.17547 -4.03429,0.016 -7.33507,1.14641 -7.33507,2.51232 0,1.38076 10.36277,2.26896 23.33885,2.00037 l 23.33886,-0.48311 24.72911,17.01609 c 13.60101,9.35882 25.37463,18.06043 26.16356,19.3369 1.95966,3.17063 -2.52598,2.94289 -5.7616,-0.29257 -1.43744,-1.43735 -12.78013,-6.13529 -25.20595,-10.43987 -12.42583,-4.30455 -29.194,-10.20172 -37.26256,-13.10482 -29.23714,-10.51956 -39.86843,-11.77067 -55.81356,-6.56833 -7.95873,2.5967 -14.98767,6.30339 -15.61984,8.23707 -0.63216,1.93371 0.47825,3.29178 2.46762,3.01795 8.92088,-1.22799 18.46876,0.34962 16.9535,2.80128 -0.90667,1.46695 -3.67815,2.67385 -6.15885,2.68206 -9.0479,0.0299 -24.51506,5.65771 -24.51506,8.92008 0,1.84248 -3.46042,8.08723 -7.68978,13.87724 -4.22939,5.78999 -8.56311,15.78919 -9.63043,22.22046 -1.92099,11.57474 -1.88241,11.65243 3.80804,7.66689 3.16176,-2.21446 16.60982,-15.5779 29.88455,-29.69651 24.1531,-25.68857 31.60594,-29.9707 39.10739,-22.46963 9.02999,9.02954 0.18304,33.56073 -23.28468,64.56422 -7.32061,9.67136 -13.05823,17.55396 -12.75029,17.51691 0.30797,-0.037 11.59621,-2.82238 25.08503,-6.18962 16.49017,-4.11646 25.97254,-5.31224 28.94315,-3.6499 3.62807,2.03027 4.11457,1.5162 2.7208,-2.87497 -4.91005,-15.46933 -11.70027,-41.92874 -10.95209,-42.67687 1.40828,-1.40823 11.75078,14.16097 14.90518,22.43768 1.61046,4.22568 3.47042,14.80043 4.13322,23.49948 0.6628,8.69905 3.57602,25.10199 6.47384,36.45102 5.86187,22.95756 6.58217,31.74807 2.60144,31.74807 -1.46702,0 -2.68338,-4.50083 -2.703,-10.00185 -0.0375,-10.4302 -12.97235,-54.12931 -13.18144,-44.53137 -0.17384,7.98888 -14.92962,20.68775 -34.99324,30.11577 -20.06715,9.42966 -23.80379,15.05976 -23.81227,35.87836 -0.008,17.28243 11.08861,109.03653 12.95936,107.16589 0.75401,-0.75398 2.19868,-6.44953 3.2103,-12.65675 1.81208,-11.11854 1.8443,-11.05763 2.17321,4.10883 0.57009,26.28821 -20.05942,62.93714 -37.95517,67.42845 -16.31602,4.09485 -26.79967,-12.34084 -33.55515,-52.60601 -5.07459,-30.24645 -8.84759,-37.37997 -6.69842,-12.66459 5.81697,66.89472 18.83505,87.45433 46.36209,73.22025 z m 46.97186,-106.89702 c -1.02025,-6.80344 -1.25491,-12.96999 -0.52141,-13.70347 0.73352,-0.73345 2.16844,4.23286 3.18872,11.03632 1.02028,6.80342 1.25493,12.96995 0.52142,13.70343 -0.73351,0.73347 -2.16843,-4.23286 -3.18873,-11.03628 z m -13.15771,-37.54957 c -2.36552,-6.94206 -4.1375,-18.70927 -3.9377,-26.14937 0.19984,-7.44009 0.84859,-10.5269 1.44183,-6.85955 0.59323,3.66734 2.8791,14.92068 5.07973,25.00738 4.74079,21.72982 3.45297,25.71783 -2.58386,8.00154 z m 55.05222,-117.02444 c -0.0297,-5.86775 0.49242,-8.58225 1.16001,-6.0322 0.6676,2.55003 0.69182,7.35091 0.0538,10.66863 -0.63799,3.31771 -1.18422,1.23132 -1.21382,-4.63643 z m -5.53389,-24.49689 c -2.05783,-8.02876 -7.34182,-18.12463 -12.86021,-24.57132 -5.15196,-6.01857 -8.18008,-10.94288 -6.72918,-10.94288 7.84982,0 26.07506,33.60393 24.01804,44.28466 -0.51458,2.67186 -2.50747,-1.27483 -4.42865,-8.77046 z M 327.01565,801.49802 c 6.60155,-3.29663 15.00354,-6.81155 18.67108,-7.81096 6.13472,-1.67171 6.28797,-1.51081 1.91533,2.01122 -4.48638,3.61365 -4.41158,3.90944 1.33364,5.27474 3.34763,0.7955 12.75104,2.24412 20.89651,3.21915 17.14725,2.05252 17.10693,2.08326 29.89226,-22.82367 8.53297,-16.62309 8.89999,-16.93475 28.64844,-24.32655 17.97906,-6.72954 32.00755,-17.06359 32.00755,-23.57826 0,-2.25417 -14.18437,1.18156 -39.43584,9.55211 -13.47443,4.46662 -26.23627,4.91387 -28.65272,1.00419 -2.09242,-3.38547 4.04226,-13.07748 17.55864,-27.74027 10.42157,-11.30547 30.29685,-50.87826 27.67994,-55.11227 -2.75438,-4.45647 -5.22417,-2.3822 -20.72468,17.40555 -16.21471,20.69948 -44.8988,49.56133 -49.25611,49.56133 -6.76307,0 -9.21513,-8.45581 -7.55327,-26.04717 4.50566,-47.69413 4.95154,-56.65354 3.26654,-65.63495 -1.33572,-7.11958 -3.16215,-9.66992 -6.92511,-9.66992 -6.10315,0 -8.10491,6.52516 -15.95554,52.00961 -6.48117,37.55013 -8.79328,44.00812 -15.75575,44.00812 -5.62105,0 -5.79189,-0.57608 -16.68399,-56.25402 -3.52197,-18.00361 -6.8577,-28.9024 -8.66389,-28.30754 -5.81162,1.91408 -9.53412,13.84396 -8.07662,25.88405 3.46451,28.62013 4.01979,34.5926 5.33141,57.34393 1.72497,29.92112 -1.15241,36.96578 -15.5895,38.16799 -7.49516,0.62413 -15.00398,-1.82536 -30.52374,-9.95732 -23.16527,-12.13801 -27.67773,-11.29884 -21.83188,4.05982 3.18843,8.37691 5.62003,10.39381 16.27704,13.5011 10.00967,2.91852 15.63956,7.1896 28.00156,21.24316 8.51008,9.67461 17.87347,18.59511 20.80751,19.8234 7.01184,2.93534 18.54953,0.57995 33.34119,-6.80657 z m 39.51444,-30.43248 c -2.37004,-2.76787 -9.3132,-5.87789 -15.42928,-6.91112 -6.11607,-1.03325 -11.779,-3.59558 -12.58431,-5.69409 -0.80531,-2.09849 -4.62268,-5.63533 -8.48299,-7.85963 -14.21742,-8.19193 12.44047,-1.35625 28.57283,7.32677 18.41234,9.91017 17.39997,8.93801 14.57127,13.99237 -2.07011,3.69891 -2.83263,3.60094 -6.64752,-0.8543 z m 232.4537,-126.70876 c 6.72261,-12.3692 6.49402,-18.81758 -1.32405,-37.34891 -1.49964,-3.55464 -1.22973,-4.53404 0.88866,-3.2249 5.04104,3.11537 6.99639,-11.63422 3.29462,-24.85204 -1.87299,-6.68787 -4.4639,-17.46921 -5.7576,-23.95857 -3.06638,-15.3813 -7.41104,-19.79419 -26.52582,-26.94228 -8.70306,-3.25458 -15.82377,-6.39755 -15.82377,-6.9844 0,-0.58687 7.93796,-0.74058 17.63987,-0.34159 24.21411,0.99579 25.01547,-0.74502 15.71924,-34.14735 -9.65581,-34.6942 -15.52831,-44.94091 -34.17004,-59.62182 -8.51461,-6.70548 -17.75769,-16.02434 -20.5402,-20.70857 -4.413,-7.42899 -6.6941,-8.62127 -17.86014,-9.33506 -7.04053,-0.45004 -12.84355,-2.0185 -12.89552,-3.48545 -0.43046,-12.14677 -23.38484,-26.24662 -40.44024,-24.84064 -8.78607,0.7243 -10.25514,1.80037 -10.97514,8.03904 -1.27915,11.08364 3.97663,17.98126 19.04761,24.998 12.74518,5.93388 13.17416,6.42284 5.65596,6.44693 -4.47439,0.014 -9.55559,-1.39419 -11.29154,-3.13007 -5.03691,-5.03663 -6.92369,-0.38972 -3.34733,8.24396 5.4059,13.05029 0.2478,14.88762 -6.61394,2.35587 -12.94084,-23.634 -15.02845,-30.03999 -17.52458,-53.77539 -1.40831,-13.39139 -3.70838,-27.05317 -5.11128,-30.35948 -1.40295,-3.30635 -1.81416,-11.38529 -0.91388,-17.9532 1.52374,-11.11629 0.92764,-12.72867 -8.6243,-23.32727 -20.05629,-22.25403 -55.24003,-53.02924 -68.04147,-59.51589 -11.6826,-5.9197 -40.905,-14.40701 -49.95371,-14.50849 -2.41785,-0.0272 -1.74236,2.45097 2.16306,7.93534 3.92293,5.50896 5.42234,11.04148 4.84939,17.89298 -0.71275,8.52322 -2.93615,11.51627 -15.80807,21.28021 -8.78837,6.66639 -16.40746,14.97901 -18.43594,20.11404 -1.90148,4.81365 -5.59365,11.15546 -8.20483,14.09292 -3.36269,3.78292 -5.26156,11.95227 -6.50951,28.00517 -0.96902,12.46538 -2.65435,23.61952 -3.74515,24.78702 -3.42208,3.66267 -7.87102,-33.29099 -6.2732,-52.10642 1.51607,-17.8531 1.46239,-18.03811 -7.73689,-26.67161 -16.57001,-15.55085 -29.5121,-38.34306 -32.78318,-57.73411 l -2.97546,-17.63866 -4.52499,19.66406 c -6.07972,26.42036 -5.8565,39.01559 0.80959,45.68134 2.93403,2.93389 8.15781,5.33433 11.60839,5.33433 3.45059,0 10.35221,2.74969 15.33696,6.11038 l 9.06315,6.11038 0.029,23.89516 c 0.018,14.97647 1.67292,28.87263 4.43335,37.23096 2.92985,8.87134 4.9239,27.17557 5.95646,54.67674 1.64649,43.85285 3.73174,57.0041 12.55016,79.15077 7.30579,18.34786 12.10867,19.86751 23.03791,7.28926 11.22997,-12.92426 13.96127,-23.50558 14.05095,-54.43413 0.0554,-19.16554 1.29921,-27.93693 5.1052,-36.00665 6.87415,-14.57496 28.68017,-41.34095 33.68012,-41.34095 2.24194,0 10.17314,5.70106 17.6249,12.66902 13.68463,12.79617 26.23225,35.4936 26.23225,47.45166 0,3.36258 1.35894,6.56671 3.01985,7.12034 2.12258,0.70749 1.83225,3.34904 -0.9772,8.89052 -7.31925,14.43703 -7.93514,26.39991 -2.23086,43.332 5.03709,14.95156 21.32061,45.78157 24.19387,45.8069 7.89705,0.0696 10.79929,-10.55132 14.89314,-54.50146 1.30578,-14.01837 3.39435,-20.76826 8.4954,-27.45573 8.55949,-11.22151 14.28579,-10.15602 18.22218,3.39062 1.99623,6.86981 4.39028,10.2696 6.74773,9.58251 10.22027,-2.97871 18.32395,-3.2684 18.32395,-0.65508 0,1.58739 -1.50036,2.32491 -3.3341,1.63894 -1.83379,-0.68597 -6.84536,1.07402 -11.13688,3.91111 -7.05092,4.66131 -8.52102,4.7869 -15.2575,1.30352 -7.00647,-3.62299 -7.71115,-3.46354 -11.71822,2.65174 -2.39639,3.65712 -3.89128,10.38528 -3.4136,15.36358 0.73915,7.70254 1.91304,8.96099 9.00598,9.65456 6.24521,0.6107 11.40074,-1.78576 22.0052,-10.22873 7.61701,-6.06443 13.84912,-9.84849 13.84912,-8.409 0,5.22694 -51.00611,58.88808 -54.64662,57.49117 -5.4347,-2.08541 -10.23121,8.32233 -5.60484,12.16168 2.7982,2.32219 6.05751,1.65503 13.94725,-2.85502 l 10.29572,-5.88539 -7.33506,7.94856 c -8.15458,8.83667 -9.61785,16.99174 -3.04874,16.99174 2.6313,0 3.71825,1.48032 2.815,3.83392 -8.72252,22.72939 -7.93251,37.86019 1.82451,34.94472 3.15937,-0.94401 10.54544,-2.3862 16.41348,-3.20482 l 10.66923,-1.48844 -12.00285,7.9195 c -6.60155,4.35574 -14.87963,11.05402 -18.39572,14.88505 -5.30703,5.78241 -5.81787,7.65835 -3.00753,11.04444 4.48156,5.39969 8.33503,5.2142 6.21917,-0.29934 -1.43579,-3.74137 -0.28679,-4.11688 7.8984,-2.5814 6.29221,1.18034 16.67882,-0.0626 30.27289,-3.62321 25.3936,-6.65088 35.5117,-6.68961 54.29062,-0.20777 8.028,2.77099 15.39022,4.54754 16.36047,3.94791 0.97029,-0.59963 7.30499,0.57722 14.07709,2.61522 6.77214,2.03801 12.31297,2.76745 12.31297,1.62094 0,-1.14648 -4.75173,-6.98057 -10.55936,-12.96464 -8.33944,-8.59278 -14.64785,-12.06332 -30.00709,-16.50827 -10.69627,-3.09549 -22.20485,-6.7457 -25.57466,-8.11161 -3.36979,-1.36589 -9.3712,-2.50182 -13.33647,-2.52426 -13.84874,-0.0784 -14.82009,-4.42912 -1.39536,-6.2498 7.07125,-0.95904 16.45772,-2.52989 20.85876,-3.49078 7.22835,-1.57822 7.64813,-1.31895 4.34251,2.68193 -3.31067,4.00704 -2.85518,4.26823 4.78038,2.74117 6.85426,-1.37076 10.30765,-0.18664 18.38328,6.3026 5.46893,4.39477 14.75951,10.44724 20.64567,13.45001 5.88619,3.00275 12.40886,8.86891 14.49482,13.03594 2.08599,4.16703 5.81831,9.97684 8.29403,12.91072 2.47572,2.93389 5.38713,9.51154 6.46982,14.61704 1.777,8.37967 1.54552,8.93171 -2.37932,5.67455 -3.85864,-3.20221 -4.34784,-2.68528 -4.34784,4.59435 0,4.51142 1.3967,11.26786 3.10378,15.01431 2.74583,6.0261 3.59185,6.36712 7.33508,2.95676 2.32718,-2.12026 7.18873,-9.29663 10.80342,-15.94746 z M 398.44743,482.75568 c -8.52256,-17.23589 -11.26959,-32.85491 -7.74003,-44.00812 2.29764,-7.26046 2.55335,-6.66468 2.76141,6.43356 0.16484,10.37986 2.14973,17.71194 7.0655,26.09965 4.00358,6.83125 6.49033,14.6645 6.00143,18.90445 -0.75742,6.56839 -1.50756,5.87936 -8.08831,-7.42954 z M 263.09437,458.9266 c -1.51861,-2.83744 -2.62189,-8.53849 -2.45171,-12.66901 0.18565,-4.5084 0.79695,-5.64451 1.52923,-2.84249 0.67089,2.56713 3.34634,4.66752 5.94543,4.66752 9.44191,0 16.59053,-14.23977 20.08442,-40.00738 0.89509,-6.60122 2.69361,-13.7131 3.99676,-15.8042 3.09212,-4.96184 0.5615,38.25354 -2.90708,49.64382 -5.7667,18.93694 -20.16313,28.28563 -26.19705,17.01174 z m -4.94934,-57.51927 c -0.024,-10.26856 2.121,-27.07164 4.76682,-37.3402 4.75699,-18.46201 4.81186,-18.53634 4.92259,-6.66791 0.0616,6.60122 -2.08349,23.40432 -4.76685,37.34022 l -4.87879,25.33801 z m 130.43096,-72.56466 c -5.94497,-5.68612 -11.54639,-7.8751 -33.55373,-13.11268 -7.2731,-1.73095 -6.66578,-2.09501 6.66825,-3.99738 8.06857,-1.15115 16.47055,-1.55027 18.67106,-0.8869 3.65567,1.10198 17.59226,22.24628 15.5499,23.59191 -0.48386,0.31883 -3.78482,-2.19891 -7.33548,-5.59495 z m -75.3569,-67.8019 c 7.09573,-6.64971 8.55835,-9.72241 7.29414,-15.32383 -1.50928,-6.6872 -1.39721,-6.7705 2.46056,-1.829 6.36284,8.15029 4.80256,13.8507 -5.44615,19.89725 -13.28373,7.83721 -14.6627,6.95887 -4.30855,-2.74442 z M 81.765479,458.96079 c 9.692547,-14.54068 9.763809,-19.96385 0.602062,-45.82774 -6.849859,-19.33738 -7.08387,-21.51261 -4.154137,-38.61531 3.787668,-22.11113 1.82405,-26.7751 -4.925786,-11.69968 -2.772787,6.19295 -9.095022,16.8089 -14.04937,23.59097 -4.954369,6.78213 -14.68569,23.13314 -21.625149,36.33557 -15.884804,30.22114 -18.073888,32.6073 -15.904577,17.33655 2.985611,-21.01701 11.597303,-43.63702 26.63045,-69.94912 8.037892,-14.06852 14.614354,-27.87586 14.614354,-30.68305 0,-2.80715 -1.926637,-10.75802 -4.281414,-17.66854 -8.089245,-23.73946 1.354835,-40.46079 26.836815,-47.51621 16.943623,-4.69133 23.415303,-14.6091 23.165753,-35.50117 -0.15104,-12.64146 0.84391,-15.53243 7.70729,-22.39546 10.29779,-10.29726 13.83987,-19.77687 10.58667,-28.33298 -2.63159,-6.92122 -8.01184,-9.16662 -7.98861,-3.33396 0.008,1.83368 -5.44692,14.27716 -12.12052,27.65218 -8.335477,16.70571 -18.285901,31.12333 -31.786692,46.05711 -12.41587,13.73373 -21.140763,26.10546 -23.693444,33.5968 -2.222351,6.52184 -10.785453,23.60313 -19.029134,37.95841 -10.47019,18.23245 -14.626375,28.0887 -13.787242,32.69595 0.699733,3.84175 -1.570245,12.06447 -5.436835,19.69444 -5.6199877,11.0899 -6.3872262,15.39636 -5.0023203,28.07761 0.8996749,8.23823 2.3013463,29.38127 3.1148063,46.98452 1.665299,36.03718 4.064823,41.34096 18.703361,41.34096 7.256877,0 8.548353,0.83523 7.217427,4.66754 -2.425216,6.98313 35.535783,-30.85802 44.606242,-44.46539 z"
       style="fill:#ffffff;stroke-width:2.66722798;fill-opacity:1" />
    <g
       transform="matrix(2.3713243,0,0,2.8889203,-1779.9424,-456.19615)"
       id="text4499"
       style="font-style:normal;font-variant:normal;font-weight:normal;font-stretch:normal;font-size:40px;line-height:1.25;font-family:'Book Antiqua';-inkscape-font-specification:'Book Antiqua';letter-spacing:0px;word-spacing:0px;fill:#ffffff;fill-opacity:1;stroke:none"
       aria-label="SPECTREKEY">
      <path
         inkscape:connector-curvature="0"
         id="path4501"
         style="font-style:normal;font-variant:normal;font-weight:800;font-stretch:normal;font-size:192px;font-family:'Rockwell Extra Bold';-inkscape-font-specification:'Rockwell Extra Bold, Ultra-Bold';font-variant-ligatures:normal;font-variant-caps:normal;font-variant-numeric:normal;font-feature-settings:normal;text-align:start;writing-mode:lr-tb;text-anchor:start;fill:#ffffff;fill-opacity:1"
         d="m 1091.3341,431.08676 h -29.3437 v -41.8125 h 29.3437 q 5.25,17.0625 19.7813,17.0625 10.5,0 10.5,-8.4375 0,-4.40625 -3.6563,-7.3125 -3.9375,-3.1875 -16.5937,-8.8125 -15.9375,-7.21875 -23.4375,-12.46875 -7.0313,-4.78125 -12,-13.21875 -4.9688,-8.34375 -4.9688,-18.46875 0,-18.1875 11.8125,-28.40625 11.7188,-10.21875 28.875,-10.21875 17.1563,0 29.0625,9.75 v -8.0625 h 29.5313 v 37.125 h -29.1563 q -5.3437,-15.375 -18.9375,-15.375 -9.5625,0 -9.5625,8.15625 0,3.9375 2.7188,5.90625 2.625,2.0625 16.9687,9.09375 19.2188,9.5625 25.6875,13.96875 3.2813,2.15625 6.6563,6.09375 3.4687,3.84375 5.7187,7.96875 5.1563,9.1875 5.1563,19.875 0,16.40625 -12.1875,27.75 -12.1875,11.53125 -30.75,11.53125 -17.25,0 -31.2188,-10.21875 z" />
      <path
         inkscape:connector-curvature="0"
         id="path4503"
         style="font-style:normal;font-variant:normal;font-weight:800;font-stretch:normal;font-size:192px;font-family:'Rockwell Extra Bold';-inkscape-font-specification:'Rockwell Extra Bold, Ultra-Bold';font-variant-ligatures:normal;font-variant-caps:normal;font-variant-numeric:normal;font-feature-settings:normal;text-align:start;writing-mode:lr-tb;text-anchor:start;fill:#ffffff;fill-opacity:1"
         d="m 1244.8029,329.27426 v 24.46875 h 9.8437 q 10.3125,0 15,-2.4375 4.5,-2.4375 4.5,-9.46875 0,-4.59375 -2.4375,-7.78125 -2.3437,-3.09375 -6.2812,-3.9375 -3.75,-0.84375 -12.75,-0.84375 z m 13.125,101.8125 h -76.2188 v -31.21875 h 12.6563 v -67.96875 h -12.6563 v -31.21875 h 79.9688 q 27.5625,0 40.3125,5.34375 12.75,5.4375 18.75,14.8125 6,9.375 6,20.53125 0,13.78125 -7.125,22.875 -7.125,9.1875 -18.8438,13.3125 -11.5312,4.03125 -35.625,4.03125 h -20.3437 v 18.28125 h 13.125 z" />
      <path
         inkscape:connector-curvature="0"
         id="path4505"
         style="font-style:normal;font-variant:normal;font-weight:800;font-stretch:normal;font-size:192px;font-family:'Rockwell Extra Bold';-inkscape-font-specification:'Rockwell Extra Bold, Ultra-Bold';font-variant-ligatures:normal;font-variant-caps:normal;font-variant-numeric:normal;font-feature-settings:normal;text-align:start;writing-mode:lr-tb;text-anchor:start;fill:#ffffff;fill-opacity:1"
         d="m 1464.6466,431.08676 h -124.4062 v -31.21875 h 10.125 v -67.96875 h -10.3125 v -31.21875 h 124.5937 v 41.71875 h -34.2187 v -10.5 h -29.625 v 20.0625 h 25.7812 v 26.53125 h -25.7812 v 21.375 h 29.625 v -10.5 h 34.2187 z" />
      <path
         inkscape:connector-curvature="0"
         id="path4507"
         style="font-style:normal;font-variant:normal;font-weight:800;font-stretch:normal;font-size:192px;font-family:'Rockwell Extra Bold';-inkscape-font-specification:'Rockwell Extra Bold, Ultra-Bold';font-variant-ligatures:normal;font-variant-caps:normal;font-variant-numeric:normal;font-feature-settings:normal;text-align:start;writing-mode:lr-tb;text-anchor:start;fill:#ffffff;fill-opacity:1"
         d="m 1587.5529,373.61801 33.8437,11.90625 q -4.3125,20.90625 -19.7812,34.21875 -15.6563,13.40625 -43.125,13.40625 -37.5,0 -55.5,-19.59375 -18.0938,-19.5 -18.0938,-47.625 0,-28.3125 17.7188,-48.09375 17.7187,-19.78125 46.0312,-19.78125 22.9688,0 37.4063,11.34375 v -8.71875 h 31.3125 v 47.625 h -32.5313 q -2.5312,-8.90625 -8.5312,-14.0625 -6,-5.0625 -13.6875,-5.0625 -21.1875,0 -21.1875,36.46875 0,36.5625 21.9375,36.5625 19.2187,0 24.1875,-28.59375 z" />
      <path
         inkscape:connector-curvature="0"
         id="path4509"
         style="font-style:normal;font-variant:normal;font-weight:800;font-stretch:normal;font-size:192px;font-family:'Rockwell Extra Bold';-inkscape-font-specification:'Rockwell Extra Bold, Ultra-Bold';font-variant-ligatures:normal;font-variant-caps:normal;font-variant-numeric:normal;font-feature-settings:normal;text-align:start;writing-mode:lr-tb;text-anchor:start;fill:#ffffff;fill-opacity:1"
         d="m 1738.3966,431.08676 h -73.2187 v -31.21875 h 11.25 v -67.96875 h -15 v 23.71875 h -24.4688 v -54.9375 h 129.2813 v 54.9375 h -24.4688 v -23.71875 h -14.9062 v 67.96875 h 11.5312 z" />
      <path
         inkscape:connector-curvature="0"
         id="path4511"
         style="font-style:normal;font-variant:normal;font-weight:800;font-stretch:normal;font-size:192px;font-family:'Rockwell Extra Bold';-inkscape-font-specification:'Rockwell Extra Bold, Ultra-Bold';font-variant-ligatures:normal;font-variant-caps:normal;font-variant-numeric:normal;font-feature-settings:normal;text-align:start;writing-mode:lr-tb;text-anchor:start;fill:#ffffff;fill-opacity:1"
         d="m 1843.1154,329.27426 v 24.84375 h 5.625 q 11.0625,0 15,-0.65625 4.2187,-0.65625 7.125,-3.75 2.9062,-2.90625 2.9062,-7.96875 0,-5.0625 -2.9062,-8.0625 -2.9063,-3.09375 -7.4063,-3.75 -4.3125,-0.65625 -15.75,-0.65625 z m 9.8437,101.8125 h -70.875 v -31.21875 h 10.5938 v -67.96875 h -10.5938 v -31.21875 h 70.875 q 9.5625,0 17.7188,0.375 8.1562,0.28125 13.9687,0.9375 5.8125,0.5625 10.6875,1.59375 13.6875,2.90625 22.2188,12.65625 8.625,9.9375 8.625,23.4375 0,10.125 -5.25,18.375 -5.25,8.15625 -13.7813,12 l 18,29.8125 h 9.375 v 31.21875 h -46.9687 l -28.4063,-53.25 h -16.0312 v 22.03125 h 9.8437 z" />
      <path
         inkscape:connector-curvature="0"
         id="path4513"
         style="font-style:normal;font-variant:normal;font-weight:800;font-stretch:normal;font-size:192px;font-family:'Rockwell Extra Bold';-inkscape-font-specification:'Rockwell Extra Bold, Ultra-Bold';font-variant-ligatures:normal;font-variant-caps:normal;font-variant-numeric:normal;font-feature-settings:normal;text-align:start;writing-mode:lr-tb;text-anchor:start;fill:#ffffff;fill-opacity:1"
         d="m 2070.6466,431.08676 h -124.4062 v -31.21875 h 10.125 v -67.96875 h -10.3125 v -31.21875 h 124.5937 v 41.71875 h -34.2187 v -10.5 h -29.625 v 20.0625 h 25.7812 v 26.53125 h -25.7812 v 21.375 h 29.625 v -10.5 h 34.2187 z" />
      <path
         inkscape:connector-curvature="0"
         id="path4515"
         style="font-style:normal;font-variant:normal;font-weight:800;font-stretch:normal;font-size:192px;font-family:'Rockwell Extra Bold';-inkscape-font-specification:'Rockwell Extra Bold, Ultra-Bold';font-variant-ligatures:normal;font-variant-caps:normal;font-variant-numeric:normal;font-feature-settings:normal;text-align:start;writing-mode:lr-tb;text-anchor:start;fill:#ffffff;fill-opacity:1"
         d="m 2242.1154,431.08676 h -67.5 v -31.21875 h 6.2812 l -28.5937,-37.125 33.1875,-30.84375 h -10.5938 v -31.21875 h 64.2188 v 31.21875 h -10.125 l -26.625,24.75 33.2812,43.21875 h 6.4688 z m -81.0938,0 h -70.6875 v -31.21875 h 9.9375 v -67.96875 h -10.2187 v -31.21875 h 70.9687 v 31.21875 h -10.3125 v 67.96875 h 10.3125 z" />
      <path
         inkscape:connector-curvature="0"
         id="path4517"
         style="font-style:normal;font-variant:normal;font-weight:800;font-stretch:normal;font-size:192px;font-family:'Rockwell Extra Bold';-inkscape-font-specification:'Rockwell Extra Bold, Ultra-Bold';font-variant-ligatures:normal;font-variant-caps:normal;font-variant-numeric:normal;font-feature-settings:normal;text-align:start;writing-mode:lr-tb;text-anchor:start;fill:#ffffff;fill-opacity:1"
         d="m 2378.5216,431.08676 h -124.4062 v -31.21875 h 10.125 v -67.96875 h -10.3125 v -31.21875 h 124.5937 v 41.71875 h -34.2187 v -10.5 h -29.625 v 20.0625 h 25.7812 v 26.53125 h -25.7812 v 21.375 h 29.625 v -10.5 h 34.2187 z" />
      <path
         inkscape:connector-curvature="0"
         id="path4519"
         style="font-style:normal;font-variant:normal;font-weight:800;font-stretch:normal;font-size:192px;font-family:'Rockwell Extra Bold';-inkscape-font-specification:'Rockwell Extra Bold, Ultra-Bold';font-variant-ligatures:normal;font-variant-caps:normal;font-variant-numeric:normal;font-feature-settings:normal;text-align:start;writing-mode:lr-tb;text-anchor:start;fill:#ffffff;fill-opacity:1"
         d="m 2495.3341,431.08676 h -71.25 v -31.21875 h 10.5 v -20.71875 l -32.9062,-47.25 h -8.9063 v -31.21875 h 68.1563 v 31.21875 h -7.7813 l 13.875,26.625 16.7813,-26.625 h -7.9688 v -31.21875 h 50.1563 v 31.21875 h -8.1563 l -32.8125,47.25 v 20.71875 h 10.3125 z" />
    </g>
  </g>
</svg>
